<svg xmlns="http://www.w3.org/2000/svg" xmlns:xlink="http://www.w3.org/1999/xlink" width="597.289" height="397.672" viewBox="0 0 597.289 397.672"><defs><clipPath id="clip-path"><rect id="Rectangle_4" data-name="Rectangle 4" width="597.289" height="397.672" fill="none"></rect></clipPath></defs><g id="Group_3" data-name="Group 3" transform="translate(0 0)"><path id="Path_1" data-name="Path 1" d="M43.931,64.2,36.4,84.043H34.916L27.389,64.2h1.737l6.508,17.492h.052L42.252,64.2Z" transform="translate(131.194 307.525)" fill="#040505"></path><g id="Group_2" data-name="Group 2" transform="translate(0 0)"><g id="Group_1" data-name="Group 1" clip-path="url(#clip-path)"><path id="Path_2" data-name="Path 2" d="M30.6,65.612a1.245,1.245,0,1,1,1.256,1.233A1.218,1.218,0,0,1,30.6,65.682v-.069m.475,4.111h1.476V83.307H31.073Z" transform="translate(146.566 308.267)" fill="#040505"></path><path id="Path_3" data-name="Path 3" d="M44.567,65.466V78.4a5.781,5.781,0,0,1-5.2,6.323,5.368,5.368,0,0,1-1.256-.012,10.325,10.325,0,0,1-5.535-1.54l.388-1.366a9.24,9.24,0,0,0,5.118,1.511,4.465,4.465,0,0,0,5-3.85,4.527,4.527,0,0,0,.029-.84V76.311h-.058A5.946,5.946,0,0,1,38,78.8a6.74,6.74,0,0,1-.052-13.473A6.225,6.225,0,0,1,43.061,67.9h.058V65.472Zm-1.43,6.508a4.987,4.987,0,0,0-4.707-5.252c-.116-.006-.232-.006-.347-.006a5.343,5.343,0,1,0,5.049,5.628c.006-.127.006-.249.006-.371" transform="translate(150.564 312.918)" fill="#040505"></path><path id="Path_4" data-name="Path 4" d="M34.373,65.6a1.239,1.239,0,1,1,1.262,1.233,1.214,1.214,0,0,1-1.262-1.158V65.6m.469,4.111H36.33V83.3H34.842Z" transform="translate(164.648 308.276)" fill="#040505"></path><rect id="Rectangle_1" data-name="Rectangle 1" width="1.476" height="20.578" transform="translate(203.723 370.997)" fill="#040505"></rect><path id="Path_5" data-name="Path 5" d="M49.326,65.407V78.99h-1.4v-2.6h-.058a5.9,5.9,0,0,1-5.147,2.739,6.526,6.526,0,0,1-6.659-6.392c0-.145,0-.289.006-.434a6.652,6.652,0,0,1,6.247-7.035c.116-.006.237-.012.353-.012a5.968,5.968,0,0,1,5.142,2.826h.058V65.4Zm-1.4,6.948a5.211,5.211,0,1,0-10.341-1.3,5.4,5.4,0,0,0,0,1.3,5.176,5.176,0,0,0,10.341.486q.009-.243,0-.486" transform="translate(172.733 312.578)" fill="#040505"></path><path id="Path_6" data-name="Path 6" d="M52.214,64.08V84.658h-1.43V82.081h-.052A5.831,5.831,0,0,1,45.584,84.8a6.519,6.519,0,0,1-6.653-6.381c-.006-.151,0-.3.006-.446a6.647,6.647,0,0,1,6.236-7.035c.122-.006.237-.012.359-.012a6.044,6.044,0,0,1,5.17,2.826h.058V64.074Zm-1.43,13.9a5.211,5.211,0,1,0-10.335,0,5.176,5.176,0,1,0,10.335,0" transform="translate(186.452 306.916)" fill="#040505"></path><path id="Path_7" data-name="Path 7" d="M55.206,65.407V78.99h-1.4v-2.6h-.052a5.892,5.892,0,0,1-5.142,2.739,6.526,6.526,0,0,1-6.659-6.392c0-.145,0-.289.006-.434a6.656,6.656,0,0,1,6.247-7.035c.116-.006.237-.012.353-.012A5.985,5.985,0,0,1,53.7,68.082h.064V65.4Zm-1.4,6.948A5.211,5.211,0,1,0,43.464,71.1a5.021,5.021,0,0,0,0,1.251A5.176,5.176,0,1,0,53.81,72.7q.009-.174,0-.347" transform="translate(200.951 312.578)" fill="#040505"></path><path id="Path_8" data-name="Path 8" d="M65.32,64.2V84.043H63.757V67.322l-7.411,12.6H55.187l-7.434-12.6h-.035V84.043H46.149V64.2h1.6l7.979,13.688h.058L63.757,64.2Z" transform="translate(221.056 307.524)" fill="#040505"></path><path id="Path_9" data-name="Path 9" d="M50.1,65.612a1.245,1.245,0,1,1,1.256,1.233A1.218,1.218,0,0,1,50.1,65.682v-.069m.481,4.111h1.482V83.307H50.577Z" transform="translate(239.962 308.267)" fill="#040505"></path><path id="Path_10" data-name="Path 10" d="M62.257,70.937v8.054H60.775V71.128c0-3.549-1.534-4.47-3.439-4.47a4.992,4.992,0,0,0-5.014,4.968,5.451,5.451,0,0,0,.035.614v6.745H50.88V65.4h1.476v2.652h.035a6.139,6.139,0,0,1,5.281-2.8c2.7,0,4.586,1.627,4.586,5.674" transform="translate(243.717 312.577)" fill="#040505"></path><path id="Path_11" data-name="Path 11" d="M65.613,72.539H54.664a5.063,5.063,0,0,0,4.951,5.171h.133a5.3,5.3,0,0,0,4.267-2.05l1.065.9a6.433,6.433,0,0,1-5.309,2.542,6.948,6.948,0,0,1-.243-13.844,6.079,6.079,0,0,1,6.132,6.027q0,.261-.017.521c0,.336-.029.7-.029.724M54.745,71.161h9.415a4.57,4.57,0,0,0-4.528-4.5,4.922,4.922,0,0,0-4.887,4.5" transform="translate(255.248 312.602)" fill="#040505"></path><path id="Path_12" data-name="Path 12" d="M69.342,64.08V84.658H67.917V82.081h-.052A5.8,5.8,0,0,1,62.724,84.8a6.52,6.52,0,0,1-6.659-6.381c-.006-.145,0-.3.006-.446a6.656,6.656,0,0,1,6.247-7.035c.116-.006.232-.012.347-.012a6.044,6.044,0,0,1,5.171,2.826h.052V64.074Zm-1.424,13.9a5.211,5.211,0,0,0-10.341-1.3,5.4,5.4,0,0,0,0,1.3,5.176,5.176,0,1,0,10.341.486q.009-.243,0-.486" transform="translate(268.525 306.916)" fill="#040505"></path><path id="Path_13" data-name="Path 13" d="M70.254,65.287V78.87H68.772V76.352H68.72a5.705,5.705,0,0,1-4.69,2.658c-3.1,0-4.974-1.9-4.974-5.587V65.287h1.471v7.689c0,3.439,1.361,4.632,3.688,4.632A5.059,5.059,0,0,0,68.783,72.1l-.012-.116v-6.7Z" transform="translate(282.881 312.698)" fill="#040505"></path><path id="Path_14" data-name="Path 14" d="M61.441,72.21a6.5,6.5,0,0,1,6.027-6.936c.214-.012.434-.017.654-.012a7.013,7.013,0,0,1,5.275,2.27l-1.06.955a5.4,5.4,0,0,0-4.163-1.824,5.529,5.529,0,0,0,0,11.042,5.717,5.717,0,0,0,4.256-1.789l1.031.979a7.4,7.4,0,0,1-5.4,2.206,6.452,6.452,0,0,1-6.63-6.276,5.747,5.747,0,0,1,.012-.631" transform="translate(294.23 312.595)" fill="#040505"></path><path id="Path_15" data-name="Path 15" d="M77.286,65.407V78.99h-1.4v-2.6h-.052a5.921,5.921,0,0,1-5.147,2.739,6.519,6.519,0,0,1-6.653-6.381c-.006-.151,0-.3.006-.446a6.652,6.652,0,0,1,6.247-7.035c.116-.006.237-.012.353-.012a5.985,5.985,0,0,1,5.136,2.826h.064V65.4Zm-1.4,6.948a5.211,5.211,0,1,0-10.341-1.3,5.4,5.4,0,0,0,0,1.3,5.176,5.176,0,0,0,10.341.486q.009-.243,0-.486" transform="translate(306.687 312.578)" fill="#040505"></path><path id="Path_16" data-name="Path 16" d="M66.835,72.21a6.5,6.5,0,0,1,6.039-6.936c.208-.012.423-.017.637-.012a7.025,7.025,0,0,1,5.281,2.27l-1.065.955a5.365,5.365,0,0,0-4.151-1.824,5.529,5.529,0,0,0,0,11.042,5.682,5.682,0,0,0,4.244-1.789l1.031.979a7.4,7.4,0,0,1-5.4,2.206,6.452,6.452,0,0,1-6.63-6.276,5.754,5.754,0,0,1,.012-.631" transform="translate(320.067 312.595)" fill="#040505"></path><path id="Path_17" data-name="Path 17" d="M69.459,65.612a1.245,1.245,0,1,1,1.256,1.233,1.2,1.2,0,0,1-1.256-1.152v-.081m.475,4.111H71.41V83.307H69.934Z" transform="translate(332.712 308.267)" fill="#040505"></path><path id="Path_18" data-name="Path 18" d="M70.365,77a6.884,6.884,0,1,1,6.9,6.908,6.709,6.709,0,0,1-6.9-6.514c-.006-.133-.006-.261,0-.394m12.263,0A5.378,5.378,0,1,0,77.237,82.5a5.316,5.316,0,0,0,5.4-5.234c0-.093,0-.18-.006-.272M79.7,64.26h1.841l-3.474,3.874H76.328Z" transform="translate(337.029 307.807)" fill="#040505"></path><path id="Path_19" data-name="Path 19" d="M84.566,70.937v8.054H83.1V71.128c0-3.549-1.534-4.47-3.439-4.47a4.992,4.992,0,0,0-5,4.979,5.248,5.248,0,0,0,.035.6v6.745H73.206V65.4h1.482v2.652a6.149,6.149,0,0,1,5.286-2.8c2.716,0,4.591,1.627,4.591,5.674" transform="translate(350.66 312.577)" fill="#040505"></path><path id="Path_20" data-name="Path 20" d="M34.821,69.643A34.821,34.821,0,1,0,0,34.8,34.825,34.825,0,0,0,34.821,69.643" transform="translate(0 -0.001)" fill="#ed7a00" fill-rule="evenodd"></path><path id="Path_21" data-name="Path 21" d="M58.015,14.124H.694v198.6H121.787V181.589c-40.53,3.474-66.69-21.475-65.323-76.718L56.273,26.41A55.88,55.88,0,0,1,58.01,14.147" transform="translate(3.324 67.653)" fill="#2b7a27" fill-rule="evenodd"></path><path id="Path_22" data-name="Path 22" d="M172.958,14.134v41H118.491V92.241H169.1v37.8H118.491v44.207h60.216V212.7H22.376V181.564c28.163-11.945,43-29.39,43.379-75.9L65.946,27.6a43.148,43.148,0,0,0-1.853-13.473H172.946" transform="translate(107.182 67.644)" fill="#ed7a00" fill-rule="evenodd"></path><path id="Path_23" data-name="Path 23" d="M30.518,27.858a11.956,11.956,0,1,0,.023,0" transform="translate(88.965 133.44)" fill="#171716" fill-rule="evenodd"></path><path id="Path_24" data-name="Path 24" d="M35.352,22.838c8.054-.174,14.608,19.009,14.128,44.039-.185,25.013-7.307,43.072-15.164,43.072-8.106.11-14.261-19.489-14.035-43.228h-.828c.191-16.617,4.574-41.955,15.905-43.889m0-.822c9.536-.041,15.72,20.12,15.72,45.012s-7.6,45.249-16.739,45.249c-9.4.226-16.837-20.364-16.617-45.492h.99C19.973,42.9,24.82,23.51,35.363,21.993" transform="translate(84.861 105.346)" fill="#2b7a27" fill-rule="evenodd"></path><path id="Path_25" data-name="Path 25" d="M20.939,23.682a2.394,2.394,0,1,1-.006,0Z" transform="translate(88.817 113.437)" fill="#171716" fill-rule="evenodd"></path><path id="Path_26" data-name="Path 26" d="M27.038,25.35a2.386,2.386,0,1,1-2.391,2.391,2.382,2.382,0,0,1,2.391-2.391" transform="translate(118.06 121.426)" fill="#171716" fill-rule="evenodd"></path><path id="Path_27" data-name="Path 27" d="M28.41,30.885a2.383,2.383,0,1,1-.006,0Z" transform="translate(124.656 147.939)" fill="#171716" fill-rule="evenodd"></path><path id="Path_28" data-name="Path 28" d="M23.431,32.012a2.391,2.391,0,1,1-2.38,2.4V34.38a2.381,2.381,0,0,1,2.38-2.368" transform="translate(100.835 153.338)" fill="#171716" fill-rule="evenodd"></path><path id="Path_29" data-name="Path 29" d="M17.594,28.714a2.4,2.4,0,0,1,0,4.8,2.4,2.4,0,0,1,0-4.8" transform="translate(73.333 137.54)" fill="#171716" fill-rule="evenodd"></path><path id="Path_30" data-name="Path 30" d="M14.924,75.267c-4.18-6.624,11.354-23.021,34.706-35.447,23.195-12.738,43.425-16.027,47.357-9.455,4.157,6.67-11.2,21.116-33.258,33.125l.417.654C48.691,72.551,22.358,83.726,14.93,75.267m-.735.428C9.365,67.8,25.989,51.186,49.01,38.407s45.556-16.9,50.148-9.264c4.887,7.7-10.758,23.739-34.086,36.477l-.486-.845C41.917,75.979,20.87,83.691,14.212,75.684" transform="translate(63.977 121.246)" fill="#2b7a27" fill-rule="evenodd"></path><path id="Path_31" data-name="Path 31" d="M95.029,79.6c4.754-6.369-8.743-22.4-31.266-36.819-22.39-14.7-42.528-19.686-47.027-13.387C12,35.818,26.11,51.052,47.371,64.954l-.475.62C61.806,75.289,86.847,87.529,95.052,79.6m.718.481c5.5-7.591-9.1-23.942-31.266-38.689S19.92,20.706,14.709,28.025C9.139,35.4,23.394,52.268,45.906,67l.579-.822c21.927,13.155,41.972,21.464,49.349,13.9" transform="translate(64.672 119.244)" fill="#ed7a00" fill-rule="evenodd"></path><path id="Path_32" data-name="Path 32" d="M26.573,30.369A.466.466,0,1,0,26.1,29.9a.471.471,0,0,0,.469.469m-6.89.724h6.78l-.741,5.1v5.292H24.83L23.736,42.6h5.726l-1.117-1.112h-.851V36.194l-.695-5.1h6.6l.336-.782-7.3-1.6-7.006,1.546Z" transform="translate(93.09 137.507)" fill="#fff" fill-rule="evenodd"></path><path id="Path_33" data-name="Path 33" d="M19.044,37.4h7.811c.2-3.15-.544-5.309-3.885-5.929h-.064c-2.079.428-3.283,1.158-3.816,3.266a7.482,7.482,0,0,0-.1,2.1,3.846,3.846,0,0,0,.058.579m-.11,0c-.243-2.131-.237-5.419,3.862-6.027V29.066h.284v2.316c2.9.423,4.227,2.38,3.885,6.033h.069c-.249,3.764-7.678,3.827-8.164,0h.069Z" transform="translate(90.284 139.226)" fill="#fff" fill-rule="evenodd"></path><path id="Path_34" data-name="Path 34" d="M21.232,37.4h7.811c.191-3.15-.538-5.309-3.879-5.929h-.046c-2.1.428-3.312,1.158-3.821,3.266a7.708,7.708,0,0,0-.11,2.1,1.936,1.936,0,0,0,.046.579m-.116,0c-.226-2.131-.226-5.419,3.891-6.027V29.066h.284v2.316c2.854.423,4.209,2.38,3.885,6.033h.046c-.249,3.764-7.672,3.827-8.158,0h.046Z" transform="translate(100.776 139.226)" fill="#fff" fill-rule="evenodd"></path><path id="Path_35" data-name="Path 35" d="M328.837,80.629h-4.794V34.586c0-5.321-7.226-3.879-7.226.62v45.4h-4.864V26.527h4.864v2.681a8.1,8.1,0,0,1,5.9-2.6c4.667,0,6.12,4.337,6.12,8.268V80.617m-29.6-69.127-8.627,12.223H285.73l6.948-12.223ZM294.5,72.946V34.152c0-2.206-1.158-4.256-3.6-4.256a3.869,3.869,0,0,0-3.636,4.094l.012.162V72.946a3.806,3.806,0,0,0,3.555,4.047l.07.006a3.6,3.6,0,0,0,3.625-3.578,4.275,4.275,0,0,0-.029-.475m4.725,0a8.4,8.4,0,0,1-16.791,0V33.724a7.93,7.93,0,0,1,7.394-8.43,7.145,7.145,0,0,1,1,0,8.1,8.1,0,0,1,8.413,7.788,5.972,5.972,0,0,1,0,.643Zm-29.6,7.672H264.9V26.538h4.719ZM252.333,44.684h-4.557V38.778c0-2.229-.481-7.527-3.613-7.527-2.611,0-3.607,2.9-3.607,5.1v34.5c0,2.316.122,5.373,3.144,5.373,3.6,0,3.613-5.211,3.613-7.678V61.412h4.725V69.6c0,4.991-1.575,12.1-7.874,12.1-7.573,0-8.685-6.143-8.685-12.24V36.051c0-5.211,2.675-9.791,8.413-9.791,8.639,0,8.419,12.686,8.419,18.441M223.586,70.757c0,5.79-2.264,10.521-8.685,10.521-6.369,0-8.87-4.8-8.87-10.521v-44h5.043V71.463c0,2.316,1.071,4.956,3.758,4.956s3.9-2.64,3.9-4.956V26.753h4.875Zm-28.8-39.615h-6.039V80.664h-4.869V31.112h-6.051V26.556h16.959ZM165.639,80.664h-4.713V26.585h4.719ZM148.767,31.112h-6.039V80.635h-4.869V31.112h-6.051V26.556h16.959ZM111.948,81.631a7.452,7.452,0,0,1-7.487-4.117,28.354,28.354,0,0,1-1.268-11.58h4.441v5.084a9.671,9.671,0,0,0,.938,5.124,3.7,3.7,0,0,0,6.271-.944,25.959,25.959,0,0,0,.816-8.286,14.914,14.914,0,0,0-2.97-8.262c-2-2.7-4.053-5.379-6.033-8.071a21.37,21.37,0,0,1-3.242-11.794c0-5.46,1.158-12.292,8.106-12.292,6.311,0,8.251,6.78,8.251,11.933a14.729,14.729,0,0,1-.232,2.9h-4.418c0-1.013.151-2.027.151-3.04,0-2.171-.162-7.162-3.329-7.162-3.775,0-4.111,4.476-4.111,7.267a18.376,18.376,0,0,0,3.3,10.057c2.067,2.9,4.169,5.726,6.259,8.569a19.347,19.347,0,0,1,3.4,10.578c0,5.582-1.888,14.047-8.859,14.047m-20.844-1H86.275V34.586c0-3.445-3.15-4.551-5.79-2.316a3.684,3.684,0,0,0-1.407,2.93V80.6H74.226V26.521h4.852V29.2a8.1,8.1,0,0,1,5.9-2.6c4.673,0,6.137,4.337,6.137,8.268Zm-30.571,0H55.8V26.561h4.719Z" transform="translate(267.294 55.036)" fill="#171716" fill-rule="evenodd"></path><path id="Path_36" data-name="Path 36" d="M325.627,51.382V33.838c0-2.05-1.9-2.82-3.677-2.82s-3.764.706-3.764,2.82V51.382Zm5.026,29.975h-5.026V56.142H318.21V81.357h-4.632V56.142h-1.864V51.382h1.864v-16.5a8.1,8.1,0,0,1,7.915-8.291c.22-.006.434,0,.648.012a8,8,0,0,1,8.54,7.417,8.542,8.542,0,0,1,.012.863Zm-26.379,0h-4.713V27.29h4.713Zm-16.125-40.53c0-2.53-.648-9.71-4.435-9.71h-3.387V51.382h3.984a11.466,11.466,0,0,0,3.839-10.573m4.146,40.53h-4.829V59.077c0-.915-1.494-2.606-2.432-2.606h-4.707v24.9h-4.632v-24.9h-2.119V51.388h2.119V27.006c11.968,0,16.9-.382,16.9,13.2a16.018,16.018,0,0,1-4.632,13.473,6.239,6.239,0,0,1,4.377,5.692ZM261.908,51.365V33.821c0-2.05-1.9-2.82-3.682-2.82s-3.758.706-3.758,2.82V51.365Zm5.032,29.975h-5.032V56.124h-7.44V81.34h-4.632V56.124h-1.859V51.365h1.859v-16.5a8.109,8.109,0,0,1,7.915-8.291c.214-.006.428,0,.637.012a8,8,0,0,1,8.54,7.429,8.354,8.354,0,0,1,.012.851ZM243.42,31.789h-6.039V81.34h-4.864V31.806h-6.062V27.29h16.959ZM219.34,81.34h-4.719V27.29h4.719Zm-20.844.979a7.387,7.387,0,0,1-7.487-4.128,28.233,28.233,0,0,1-1.268-11.58h4.412c.631,3.138-1.025,7.434.961,10.231a3.7,3.7,0,0,0,6.253-.984,24.737,24.737,0,0,0,.816-8.268,12.688,12.688,0,0,0-.938-4.557,20.16,20.16,0,0,0-2.009-3.711c-2.015-2.687-4.053-5.391-6.056-8.066a21.555,21.555,0,0,1-3.225-11.789c0-5.489,1.158-12.315,8.106-12.315,6.329,0,8.262,6.8,8.262,11.939a16.738,16.738,0,0,1-.232,2.9h-4.406c0-.99.145-2.009.145-3.034,0-2.171-.179-7.133-3.329-7.133-3.752,0-4.111,4.458-4.111,7.243a18.464,18.464,0,0,0,3.295,10.057c4.221,5.848,9.693,11.464,9.693,19.171,0,5.6-2.015,14.018-8.876,14.018M179.637,40.769c0-2.53-.631-9.71-4.424-9.71h-3.387V51.324H175.8a11.433,11.433,0,0,0,3.839-10.573m4.151,40.53h-4.817v-22.2c0-.915-1.505-2.606-2.432-2.606h-4.713v24.9h-4.632v-24.9h-2.148V51.388h2.148V27.006h10.422c5.634,1.893,6.491,7.944,6.491,13.2a16.018,16.018,0,0,1-4.632,13.473,6.247,6.247,0,0,1,4.36,5.692Zm-24.619-.075a15.45,15.45,0,0,1-3.752.428c-4.308,0-10.347-1.818-10.347-7.081V56.373h-1.98V51.741h1.98V34.527c0-5.367,5.958-7.075,10.347-7.075a15.18,15.18,0,0,1,3.752.44v4.094c-2.9-.324-9.368-1.193-9.368,2.976V51.834h9.368v4.632H149.8V74.207c0,4.053,6.566,3.3,9.368,2.982ZM137.214,27.215l-7.145,54.067h-4.343l-7.759-54.067h4.58l5.46,35.14,4.632-35.14ZM110.84,81.282h-4.707V27.29h4.707Zm-13.022,0h-4.8V35.338c0-5.6-7.214-3.619-7.214.579V81.328H80.929V27.29H85.8v2.681A8,8,0,0,1,91.7,27.348c4.673,0,6.12,4.331,6.12,8.28Zm-24.6-9.93c0,5.79-2.27,10.538-8.685,10.538-6.369,0-8.876-4.788-8.876-10.538V27.377h5.037v44.74c0,2.316,1.071,4.922,3.769,4.922,2.594,0,3.908-2.64,3.908-4.922V27.377h4.869Z" transform="translate(266.59 127.268)" fill="#171716" fill-rule="evenodd"></path><path id="Path_37" data-name="Path 37" d="M96.191,93.162a15.174,15.174,0,0,1-3.752.434c-4.3,0-10.335-1.806-10.335-7.075V68.329h-2V63.7h2V46.419c0-5.344,5.952-7.1,10.335-7.1a16.7,16.7,0,0,1,3.752.44v4.111a29.976,29.976,0,0,0-3.677-.3c-2.316,0-5.68.214-5.68,3.283V63.685h9.357v4.632H86.864v17.77c0,2.86,3.474,3.283,5.68,3.283,1.239,0,2.449-.179,3.677-.3v4.053M67.756,83.279V47.589a4.353,4.353,0,0,0-4-4.684c-.064-.006-.133-.012-.2-.012H60.536V89.387H64.45c2.8,0,3.306-4.082,3.306-6.108m5.165-.62c0,4.563-1.969,10.683-7.527,10.683h-9.7V39.089h9.438a8.763,8.763,0,0,1,7.8,9.16Z" transform="translate(266.757 187.237)" fill="#171716" fill-rule="evenodd"></path><path id="Path_38" data-name="Path 38" d="M244.341,86.552V47.759c0-2.148-1.106-4.267-3.52-4.267a3.878,3.878,0,0,0-3.515,4.215l.006.052V86.552a3.763,3.763,0,0,0,3.457,4.047l.052.006a3.578,3.578,0,0,0,3.555-3.59,4.063,4.063,0,0,0-.035-.463m4.586,0a8.176,8.176,0,1,1-16.351.069v-39.3a7.836,7.836,0,0,1,7.191-8.419,8.161,8.161,0,0,1,1-.012,7.994,7.994,0,0,1,8.176,7.8c.006.208,0,.417-.012.625Zm-28.7-2.212V48.651a4.323,4.323,0,0,0-3.931-4.684l-.162-.012H213.2V90.449h3.81c2.739,0,3.219-4.117,3.219-6.109m5.037-.62c0,4.464-1.864,10.683-7.348,10.683h-9.449V40.151h9.189a8.689,8.689,0,0,1,7.608,9.16Zm-29.3-19.437V46.722c0-2.021-1.818-2.831-3.567-2.831-1.847,0-3.677.758-3.677,2.831V64.284Zm4.887,29.946h-4.887V69.037h-7.214V94.224h-4.528V69.037h-1.841V64.266H184.2V47.753a7.975,7.975,0,0,1,7.666-8.262c.22-.006.44-.006.66.006a7.854,7.854,0,0,1,8.32,7.365,7.652,7.652,0,0,1,.006.892ZM175.527,83.188c0,4.979-1.94,12.084-8.106,12.084-7.469,0-8.413-6.259-8.413-12.194V49.641c0-5.13,2.472-9.791,8.187-9.791,8.106,0,8.384,11,8.384,16.635H171.15V52.362c0-2.148-.741-7.527-3.729-7.527-2.611,0-3.955,2.768-3.955,5.066V84.456c0,2.316.828,5.79,3.729,5.79,3.96,0,3.955-5.391,3.955-8.106V68.91h-5.043V64.226h9.42ZM150.774,94.23h-4.6V40.145h4.6ZM138.725,40.145,131.777,94.23h-4.238l-7.527-54.085h4.447l5.309,35.163,4.539-35.163ZM112.45,94.23h-4.667v-46c0-5.315-7.029-3.9-7.029.579V94.224H96.012V40.139h4.742v2.71a7.76,7.76,0,0,1,5.726-2.64c4.632,0,5.97,4.464,5.97,8.314Zm-24.185-.064a14.279,14.279,0,0,1-10.486-1.285,5.962,5.962,0,0,1-3.237-5.362V69.327H72.6V64.695h1.94V47.417c0-5.286,5.686-7.1,10.063-7.1a15.9,15.9,0,0,1,3.659.44V44.87a28.307,28.307,0,0,0-3.572-.3,10,10,0,0,0-4.053.677,2.675,2.675,0,0,0-1.494,2.611V64.695h9.119v4.632H79.152V87.1a2.637,2.637,0,0,0,1.569,2.536,14.28,14.28,0,0,0,7.527.446Z" transform="translate(347.771 186.256)" fill="#171716" fill-rule="evenodd"></path><path id="Path_39" data-name="Path 39" d="M9.591,3.383l-.075.5L16.939,3.1c-3.086.579-6.091,1.54-9.473,1.951-.909.44-.347.579-.521.909l8.894-1.251v.434L5.9,6.174c-.521.463-.579.776-.139.944L21.941,5.757,4.936,7.424C3.778,7.65,3.708,8,4.67,8.362c-1.928,0-2.316.371-1.048,1.123-2.449.469-2.837.955-1.158,1.476,4.939,0,11.76-1.349,17.636-2.009l-9.4,2.009.145.724,1.326-.075.22.869a78.82,78.82,0,0,0,12.431-1.517l-11.54,2.629c-1.013.336-1.094.8-.232.9l7.272-.822-7.411,1.61c-1.256.44-1.193.747.139.886l6.838-1.036L12.909,16.9c-.926.417-.869.787.139,1.094-.579.538-.272.758.961.724L21,17.111l-7.3,2.368c-.689.5-.579.683.307.8l3.682-.724-2.8,1.077c-.579.579-.359.782.654.758l2.061-.382c-1.048.608-1.007.926.081.961l.492.156,3.028-.579-2.357.747c-.758.376-.758.718,0,1.019l3.1-.069-1.737.579-.29.353-.874.081.353.73.521.1v.95l.735.3.811-.145h.371s-.069.579.3.73a36.9,36.9,0,0,0,4.7-.967l-2.9,1.482.081.654,3.885-.735,1.036-.214.075.955,1.245.214-.428.51v.359l.66.463s.428.677.8.677-.446.579-.446.579-.5.3-.064.452a31.054,31.054,0,0,0,4.927-2.154l-4.123,2.82v.463l.579.208a3.428,3.428,0,0,1,1.245-.452c.666-.093-.874.8-.874.8l-.081.73.371.307.816-.307-.816.677-.058.359.2.5s.747-.29,1.251-.428-1.019.816-1.019.816l-.087.347-.3.446.3.463.811-.145-.284.446.214.353,2.64-1.332-2.113,1.7.133.579.44.081.521.046,10.3-6.659L35.038,39.374l-.371.3-.069.353.527.376.579-.214,10.358-6.4-9.334,6.4-.376.423-.058.382a1.538,1.538,0,0,0,.793.058l7.527-4.094-6.549,4.389L38,41.73l.151.446.51.064,2.721-1.332-2.061,1.546-.515.515V43.4l.3.376h.724l4.418-2.9L39.028,44.5l-.226.51.73.284-1.094.816.087.382.428.278,9.484-4.927L39.1,47.63l-.446.162.3.521-.371.51-.145.382.446.336,2.9-1.309-3.092,1.841a2.749,2.749,0,0,0,.66.428h.446l-.955.579.3.359-.22.579-.139.428.284.376-.371.579.446.3-.22.689a1.506,1.506,0,0,1,.365,1.025l.515.133v.428l-.515.162.515.371c.446.208-.075.064.382.51s.428.5.428.5l.5.162a3.863,3.863,0,0,1,.677-.081h.365l.376-.133a3.01,3.01,0,0,0,.648-.376l.075-.376c.359-.272.075-.486.075-.486l-.579-.093c-.359-.3-1.106-.162-.579-.5s.521-.614.521-.614-.232-.151,0-.515a1.3,1.3,0,0,0,.214-.579V53l.075-.382,1.824-.5-.371-.822-.069-.434,1.621-.521.51-.672-1.1-.359,3.092-1.546.069-.579-.434-.214-4.858,1.494,6.908-3.121.446-.5v-.359a38.256,38.256,0,0,0-5.367,1.39l7.492-3.735-.226-.382a1.331,1.331,0,0,0-.874,0L46.2,44.174l10.023-6.1-.1-.51-.3-.353-6.948,3.352L57.492,35.2a1.544,1.544,0,0,0-.44-.579l-.579-.139-12.518,7.73,11.916-7.938.075-.579a1.267,1.267,0,0,0-.8-.168H54.7l-9.189,5.379,8.6-5.79.371-.44-.666-.208-.51-.1L41.24,40.011l10.005-6.948.527-.359.133-.371-.44-.3-.365.22-8.818,5.014,6.027-4.053.214-.579v-.556l-.214-.347-3.381,1.853,2.2-2.015.156-.5-.446-.579-.521.22-6.9,4.325L45.738,30.4l.087-.371-.579-.208-5.211,2.941,3.9-3.167.51-.654-.579-.3-.741.3.579-.677-.382-.075-.5-.226h-.347l-.371.087-4.481,2.432,2.791-2.055-.382-.463-.579.087L37.887,29.1l1.691-1.4-.654-.237-.51-.064-.452.232-.428-.463a1.467,1.467,0,0,0-.666-.29h-.88L32.612,28.94s-.521.3-.371-.075a.394.394,0,0,0-.208-.51l-.023-.006-.359-.081v-.515L30.91,27.4l-.73.064v-.822l-.371-.428-1.453.156,1.668-.892v-.342l-.139-.342-.365-.22-3.381.863.208-.579v-.365l-.359-.162H24.831l-.3-.5-3.167.353.73-.434,1.025-.214.579-.214.44-.214.382-.272.069-.486-.452-.2-.359-.156,1.036-.834.446-.208a.574.574,0,0,0-.382-.51l-.515-.069L31.651,18.4l.359-.313.081-.446s-.081-.214-.51-.214a21.153,21.153,0,0,0-2.652.73l5.211-1.83.145-.538-.51-.116-9.119,1.963.371-.579L34.291,15l.579-.463.579-.417v-.533a133.665,133.665,0,0,1-13.317,2.721c1.32-.735,13.317-3.086,13.317-3.086l.428-.371.3-.579.515-.648h-.359l-1.4.156-.735.156-.735.046s-.648-.353,0-.515a9.008,9.008,0,0,0,1.39-.44l.307-.492-.371-.075L20,12.815,35.056,9.873l1.036-.307.66-.428.069-.359a2.258,2.258,0,0,0-1.4-.087L28.154,9.85V9.271L21.1,9.85l9.461-1.737.3-.417s.069-.515-.3-.515h-.828l-3.52.452-1.048-.162a1.988,1.988,0,0,0-.718-.376l-.452-.139H21.623l1.7-.434.944-.237.446-.272V5.629L24.57,5.05,21.1,4.929l1.32-.365L23,4.4a3.574,3.574,0,0,0,.654-.2,1.981,1.981,0,0,0,.666-.446l.156-.452a.65.65,0,0,0-.527-.2h-.8l-1.98.579s-2.073.214-2.727.214-1.841.081-1.841.081l3.022-.66A14.816,14.816,0,0,1,21.09,2.8c.5-.069.428-.29,1.031-.29a2.552,2.552,0,0,0,1.019-.214l.672-.382V1.391a6.543,6.543,0,0,0-.892-.081,10.316,10.316,0,0,0-1.4.232l-1.615.3-1.4.3-2.27.226-1.106.075-1.245.284-1.036.069L11.45,3l-.735.1-1.158.284" transform="translate(6.899 6.274)" fill="#2b7a27" fill-rule="evenodd"></path><path id="Path_40" data-name="Path 40" d="M22.54,14.124c-24.66,133.953,140.119,196.485,274.7,178.16C151.021,221.292-14.945,147.7,4.359,14.124Z" transform="translate(13.509 67.653)" fill="#fff" fill-rule="evenodd"></path><path id="Path_41" data-name="Path 41" d="M86.743,55.35,74.734,84.37h-2.42l3.653-9-9-20.022h2.409l7.683,17.37h.046l7.162-17.37Z" transform="translate(320.789 265.128)" fill="#040505"></path><path id="Path_42" data-name="Path 42" d="M8.978,82.7A14.164,14.164,0,0,1,3.147,77.26a15.783,15.783,0,0,1-2.073-8.106,15.506,15.506,0,0,1,2.073-8.037,14.016,14.016,0,0,1,5.86-5.425,18.806,18.806,0,0,1,8.685-1.928,17.07,17.07,0,0,1,12.478,4.91l-1.378,1.39A14.969,14.969,0,0,0,17.9,55.588a16.456,16.456,0,0,0-7.637,1.691,12.241,12.241,0,0,0-5.107,4.748,13.71,13.71,0,0,0-1.812,7.093,14.167,14.167,0,0,0,1.795,7.168A12.258,12.258,0,0,0,10.176,81.1a17.163,17.163,0,0,0,14.359.266,13.792,13.792,0,0,0,5.02-3.92l1.505,1.372a15.615,15.615,0,0,1-5.709,4.273,18.441,18.441,0,0,1-7.66,1.54A18.779,18.779,0,0,1,8.978,82.7" transform="translate(5.133 257.496)" fill="#040505"></path><path id="Path_43" data-name="Path 43" d="M7.024,56.345a1.51,1.51,0,0,1,0-2.131,1.472,1.472,0,0,1,1.106-.452,1.539,1.539,0,0,1,1.112.452A1.424,1.424,0,0,1,9.7,55.268a1.45,1.45,0,0,1-.44,1.077,1.611,1.611,0,0,1-1.158.428A1.538,1.538,0,0,1,7,56.345m.168,6.514H9.154V84.2H7.168Z" transform="translate(31.532 257.521)" fill="#040505"></path><path id="Path_44" data-name="Path 44" d="M29.512,67.075H9.728a9.25,9.25,0,0,0,2.623,6.294,8.515,8.515,0,0,0,6.271,2.357,10.8,10.8,0,0,0,4.806-1.077A11.544,11.544,0,0,0,27.2,71.7l1.505.979a11.185,11.185,0,0,1-4.366,3.515,13.593,13.593,0,0,1-5.715,1.2,11.538,11.538,0,0,1-5.79-1.407,9.745,9.745,0,0,1-3.879-3.914,12.975,12.975,0,0,1,0-11.58,9.422,9.422,0,0,1,3.862-3.856,12.852,12.852,0,0,1,11.54,0,9.549,9.549,0,0,1,3.862,3.792,11.394,11.394,0,0,1,1.366,5.651,5.98,5.98,0,0,1-.046,1.019m-17.249-7.8a9.264,9.264,0,0,0-2.577,6.369H27.463a9.043,9.043,0,0,0-2.553-6.369,8.666,8.666,0,0,0-6.369-2.351,8.547,8.547,0,0,0-6.276,2.351" transform="translate(36.349 264.734)" fill="#040505"></path><path id="Path_45" data-name="Path 45" d="M28.126,56.453A8.4,8.4,0,0,1,31.6,59.783a9.876,9.876,0,0,1,1.245,5V77.014h-2V65.237a8.585,8.585,0,0,0-1.054-4.319,7.233,7.233,0,0,0-2.988-2.9A9.43,9.43,0,0,0,22.354,57a8.4,8.4,0,0,0-6.132,2.258,7.939,7.939,0,0,0-2.316,5.964V77H11.868V55.672H13.86l.046,4.754a8.187,8.187,0,0,1,3.347-3.816A12.267,12.267,0,0,1,28.1,56.447" transform="translate(56.848 264.713)" fill="#040505"></path><path id="Path_46" data-name="Path 46" d="M21.6,76.015a10.007,10.007,0,0,1-4.157-3.9,11.437,11.437,0,0,1-1.459-5.79,11.22,11.22,0,0,1,1.488-5.79,10.017,10.017,0,0,1,4.2-3.874,14.862,14.862,0,0,1,10.364-.816,12.425,12.425,0,0,1,3.474,1.7l-1.158,1.424a10.3,10.3,0,0,0-2.988-1.482,12.073,12.073,0,0,0-3.433-.469,10.915,10.915,0,0,0-5.124,1.158,8.22,8.22,0,0,0-3.474,3.295,9.638,9.638,0,0,0-1.216,4.893A9.5,9.5,0,0,0,19.35,71.25a8.5,8.5,0,0,0,3.474,3.266,10.984,10.984,0,0,0,5.159,1.158,11.574,11.574,0,0,0,3.816-.637,9.877,9.877,0,0,0,3.219-1.806l1.216,1.384a12.327,12.327,0,0,1-8.419,2.8A13.41,13.41,0,0,1,21.6,76.038" transform="translate(76.539 264.739)" fill="#040505"></path><path id="Path_47" data-name="Path 47" d="M20.235,56.345a1.41,1.41,0,0,1-.452-1.077,1.543,1.543,0,0,1,1.546-1.505,1.552,1.552,0,0,1,1.117.452,1.405,1.405,0,0,1,.475,1.054,1.434,1.434,0,0,1-.446,1.077,1.611,1.611,0,0,1-1.158.428,1.545,1.545,0,0,1-1.094-.428m.162,6.514h1.992V84.2H20.386Z" transform="translate(94.761 257.521)" fill="#040505"></path><path id="Path_48" data-name="Path 48" d="M44.483,55.676V77.018H42.5l-.046-5.043V71.6a9.056,9.056,0,0,1-3.758,4.273,12.254,12.254,0,0,1-6.439,1.54,12.6,12.6,0,0,1-5.975-1.378,10.053,10.053,0,0,1-4.053-3.879A11.264,11.264,0,0,1,20.779,66.4a11.547,11.547,0,0,1,1.448-5.819,9.863,9.863,0,0,1,4.053-3.92,12.528,12.528,0,0,1,5.975-1.39,12.324,12.324,0,0,1,6.439,1.558,8.962,8.962,0,0,1,3.758,4.256v-.371L42.5,55.67ZM37.8,74.517a8.416,8.416,0,0,0,3.439-3.266,10.407,10.407,0,0,0,0-9.779A8.308,8.308,0,0,0,37.8,58.177a11.877,11.877,0,0,0-10.237,0,8.308,8.308,0,0,0-3.439,3.295A9.772,9.772,0,0,0,22.9,66.4a9.519,9.519,0,0,0,1.216,4.864,8.375,8.375,0,0,0,3.439,3.248,11.877,11.877,0,0,0,10.237,0" transform="translate(99.521 264.709)" fill="#040505"></path><path id="Path_49" data-name="Path 49" d="M26.695,67.059l3.086-8.488H32.3l-3.532,8.488Z" transform="translate(127.87 280.556)" fill="#040505"></path><path id="Path_50" data-name="Path 50" d="M52.9,67.092H33.17a9.294,9.294,0,0,0,2.606,6.271,8.515,8.515,0,0,0,6.265,2.345,10.679,10.679,0,0,0,4.783-1.071A11.412,11.412,0,0,0,50.587,71.7l1.5.979a11.362,11.362,0,0,1-4.354,3.5,13.662,13.662,0,0,1-5.692,1.193,11.468,11.468,0,0,1-5.79-1.4,9.864,9.864,0,0,1-3.868-3.914,12.865,12.865,0,0,1,0-11.58,9.36,9.36,0,0,1,3.856-3.85,11.731,11.731,0,0,1,5.726-1.355,11.846,11.846,0,0,1,5.79,1.355A9.6,9.6,0,0,1,51.6,60.422a11.405,11.405,0,0,1,1.355,5.628,7.494,7.494,0,0,1-.035,1.019M35.729,59.287A9.165,9.165,0,0,0,33.153,65.6h17.7A9.03,9.03,0,0,0,48.3,59.287a8.638,8.638,0,0,0-6.323-2.351,8.494,8.494,0,0,0-6.253,2.351" transform="translate(148.521 264.78)" fill="#040505"></path><path id="Path_51" data-name="Path 51" d="M58.638,53.568v31.6h-1.98l-.041-5.026V79.78a9.009,9.009,0,0,1-3.746,4.25,12.252,12.252,0,0,1-6.421,1.546A12.51,12.51,0,0,1,40.5,84.2a9.938,9.938,0,0,1-4.053-3.862A11.232,11.232,0,0,1,35,74.6a11.57,11.57,0,0,1,1.442-5.79A9.73,9.73,0,0,1,40.5,64.9a12.36,12.36,0,0,1,5.952-1.378,12.252,12.252,0,0,1,6.421,1.546,9.012,9.012,0,0,1,3.746,4.238V53.591ZM51.979,82.675A8.338,8.338,0,0,0,55.4,79.409a9.512,9.512,0,0,0,1.216-4.858A9.634,9.634,0,0,0,55.4,69.676,8.224,8.224,0,0,0,51.979,66.4,10.685,10.685,0,0,0,46.9,65.241a10.8,10.8,0,0,0-5.13,1.158,8.245,8.245,0,0,0-3.416,3.277A9.686,9.686,0,0,0,37.134,74.6a9.379,9.379,0,0,0,1.216,4.84,8.375,8.375,0,0,0,3.416,3.242,11.025,11.025,0,0,0,5.13,1.158,10.894,10.894,0,0,0,5.084-1.158" transform="translate(167.654 256.592)" fill="#040505"></path><path id="Path_52" data-name="Path 52" d="M44.7,75.831a8.777,8.777,0,0,1-3.59-3.364,9.66,9.66,0,0,1-1.268-5.008v-12.1h2.027V67.175a7.875,7.875,0,0,0,2.247,5.877,8.075,8.075,0,0,0,5.941,2.229,8.848,8.848,0,0,0,4.29-1.019,7.251,7.251,0,0,0,2.9-2.849,8.547,8.547,0,0,0,1.036-4.244V55.352h1.986v12.1a9.671,9.671,0,0,1-1.28,5.008A8.762,8.762,0,0,1,55.4,75.826a12.568,12.568,0,0,1-10.694,0" transform="translate(190.819 265.137)" fill="#040505"></path><path id="Path_53" data-name="Path 53" d="M49.432,75.994A9.965,9.965,0,0,1,45.3,72.108a11.316,11.316,0,0,1-1.453-5.79,11.148,11.148,0,0,1,1.471-5.79,10.045,10.045,0,0,1,4.192-3.868,13.687,13.687,0,0,1,6.276-1.378,13.536,13.536,0,0,1,4.053.579,12.489,12.489,0,0,1,3.474,1.7l-1.158,1.419A10.138,10.138,0,0,0,59.171,57.5a12.2,12.2,0,0,0-3.422-.469,10.777,10.777,0,0,0-5.107,1.158A8.231,8.231,0,0,0,47.2,61.466a9.753,9.753,0,0,0-1.216,4.875A9.391,9.391,0,0,0,47.226,71.2,8.394,8.394,0,0,0,50.7,74.465a11.049,11.049,0,0,0,5.136,1.158,11.392,11.392,0,0,0,3.81-.637,9.663,9.663,0,0,0,3.2-1.795l1.216,1.378a12.262,12.262,0,0,1-8.384,2.8,13.4,13.4,0,0,1-6.207-1.378" transform="translate(210.031 264.79)" fill="#040505"></path><path id="Path_54" data-name="Path 54" d="M70.971,55.676V76.937H68.985l-.041-5.026v-.359A9.009,9.009,0,0,1,65.2,75.8a12.252,12.252,0,0,1-6.421,1.546,12.51,12.51,0,0,1-5.952-1.378,10.011,10.011,0,0,1-4.053-3.862,11.3,11.3,0,0,1-1.436-5.738,11.565,11.565,0,0,1,1.436-5.79,9.87,9.87,0,0,1,4.053-3.908,12.51,12.51,0,0,1,5.952-1.378A12.252,12.252,0,0,1,65.2,56.84a9.012,9.012,0,0,1,3.746,4.238v-.359l.041-5.02ZM64.3,74.447a8.3,8.3,0,0,0,3.422-3.266,9.5,9.5,0,0,0,1.222-4.858,9.639,9.639,0,0,0-1.222-4.875A8.155,8.155,0,0,0,64.3,58.171a10.663,10.663,0,0,0-5.078-1.158A10.777,10.777,0,0,0,54.1,58.171a8.272,8.272,0,0,0-3.428,3.277,9.723,9.723,0,0,0-1.216,4.916,9.449,9.449,0,0,0,1.216,4.84A8.346,8.346,0,0,0,54.1,74.453a11,11,0,0,0,5.124,1.158A10.816,10.816,0,0,0,64.3,74.453" transform="translate(226.73 264.819)" fill="#040505"></path><path id="Path_55" data-name="Path 55" d="M57.538,75.994A9.979,9.979,0,0,1,53.4,72.108a11.316,11.316,0,0,1-1.453-5.79,11.148,11.148,0,0,1,1.471-5.79,10.059,10.059,0,0,1,4.2-3.868A13.687,13.687,0,0,1,63.9,55.283a13.536,13.536,0,0,1,4.053.579,12.367,12.367,0,0,1,3.439,1.7L70.23,58.977A10.363,10.363,0,0,0,67.253,57.5a12.2,12.2,0,0,0-3.422-.469,10.815,10.815,0,0,0-5.113,1.158,8.231,8.231,0,0,0-3.439,3.277,9.634,9.634,0,0,0-1.216,4.875A9.4,9.4,0,0,0,55.309,71.2a8.4,8.4,0,0,0,3.474,3.266,11.072,11.072,0,0,0,5.142,1.158,11.392,11.392,0,0,0,3.81-.637,9.637,9.637,0,0,0,3.2-1.795l1.216,1.378a12.262,12.262,0,0,1-8.384,2.8,13.34,13.34,0,0,1-6.2-1.378" transform="translate(248.831 264.79)" fill="#040505"></path><path id="Path_56" data-name="Path 56" d="M56.182,56.361a1.5,1.5,0,0,1-.012-2.113l.012-.012a1.5,1.5,0,0,1,1.094-.452,1.539,1.539,0,0,1,1.112.452,1.4,1.4,0,0,1,.469,1.048,1.425,1.425,0,0,1-.446,1.077,1.563,1.563,0,0,1-1.158.428,1.52,1.52,0,0,1-1.094-.428m.162,6.508h1.986V84.13H56.35Z" transform="translate(266.995 257.626)" fill="#040505"></path><path id="Path_57" data-name="Path 57" d="M62.39,83.684a10.131,10.131,0,0,1-4.175-3.862,12.029,12.029,0,0,1,0-11.58,10.021,10.021,0,0,1,4.175-3.891,13.519,13.519,0,0,1,6.253-1.378,13.27,13.27,0,0,1,6.178,1.378,10.043,10.043,0,0,1,4.169,3.891,12.091,12.091,0,0,1,0,11.58,10.19,10.19,0,0,1-4.169,3.862,13.431,13.431,0,0,1-6.178,1.378,13.592,13.592,0,0,1-6.253-1.378m11.32-1.517A8.274,8.274,0,0,0,77.149,78.9a9.45,9.45,0,0,0,1.21-4.858,9.629,9.629,0,0,0-1.21-4.875,8.2,8.2,0,0,0-3.439-3.277,11.852,11.852,0,0,0-10.225,0,8.189,8.189,0,0,0-3.422,3.277,9.693,9.693,0,0,0-1.216,4.875A9.57,9.57,0,0,0,60.063,78.9a8.3,8.3,0,0,0,3.422,3.266,11.932,11.932,0,0,0,10.225,0M67.341,59.545l5.836-5.871h2.629l-6.56,5.871Z" transform="translate(271.742 257.1)" fill="#040505"></path><path id="Path_58" data-name="Path 58" d="M77.544,56.476a8.449,8.449,0,0,1,3.474,3.318,9.85,9.85,0,0,1,1.245,4.979V76.967H80.271V65.219a8.577,8.577,0,0,0-1.054-4.285,7.136,7.136,0,0,0-2.976-2.9,9.361,9.361,0,0,0-4.435-1.019A8.383,8.383,0,0,0,65.7,59.267,7.867,7.867,0,0,0,63.382,65.2V76.95H61.361V55.689h1.986l.035,4.73a8.224,8.224,0,0,1,3.347-3.8,12.28,12.28,0,0,1,10.816-.162" transform="translate(293.922 264.783)" fill="#040505"></path><path id="Path_59" data-name="Path 59" d="M96.516,53.568v31.6H94.53l-.041-5.026V79.78a8.985,8.985,0,0,1-3.735,4.25,12.272,12.272,0,0,1-6.427,1.546A12.51,12.51,0,0,1,78.376,84.2a9.974,9.974,0,0,1-4.053-3.862A11.313,11.313,0,0,1,72.887,74.6a11.564,11.564,0,0,1,1.436-5.79A9.87,9.87,0,0,1,78.376,64.9a12.442,12.442,0,0,1,5.952-1.378,12.273,12.273,0,0,1,6.427,1.546,9.015,9.015,0,0,1,3.735,4.238V53.591ZM89.852,82.675a8.338,8.338,0,0,0,3.422-3.266,9.449,9.449,0,0,0,1.21-4.858,9.628,9.628,0,0,0-1.21-4.875A8.224,8.224,0,0,0,89.852,66.4a10.663,10.663,0,0,0-5.078-1.158,10.8,10.8,0,0,0-5.13,1.158,8.189,8.189,0,0,0-3.422,3.277A9.8,9.8,0,0,0,75.006,74.6a9.507,9.507,0,0,0,1.216,4.84,8.318,8.318,0,0,0,3.422,3.242,11.025,11.025,0,0,0,5.13,1.158,10.887,10.887,0,0,0,5.078-1.158" transform="translate(349.12 256.592)" fill="#040505"></path><path id="Path_60" data-name="Path 60" d="M99.248,67.09H79.522a9.327,9.327,0,0,0,2.611,6.271,8.511,8.511,0,0,0,6.259,2.345,10.679,10.679,0,0,0,4.783-1.071A11.51,11.51,0,0,0,96.944,71.7l1.494.979a11.362,11.362,0,0,1-4.354,3.5,13.572,13.572,0,0,1-5.692,1.193,11.468,11.468,0,0,1-5.79-1.4,9.753,9.753,0,0,1-3.868-3.914,12.9,12.9,0,0,1,0-11.58,9.485,9.485,0,0,1,3.85-3.85,12.889,12.889,0,0,1,11.5,0,9.529,9.529,0,0,1,3.845,3.787,11.349,11.349,0,0,1,1.361,5.628,6.637,6.637,0,0,1-.041,1.019M82.064,59.285A9.211,9.211,0,0,0,79.493,65.6H97.187a9,9,0,0,0-2.553-6.317,8.612,8.612,0,0,0-6.311-2.351,8.507,8.507,0,0,0-6.259,2.351" transform="translate(370.567 264.783)" fill="#040505"></path><path id="Path_61" data-name="Path 61" d="M84.6,76.842a8.23,8.23,0,0,1-3.26-1.6l.932-1.291a11.516,11.516,0,0,0,6.844,1.778A8.54,8.54,0,0,0,93.8,74.567a3.421,3.421,0,0,0,1.737-2.993q0-2.892-5.391-4.337l-2.791-.724A12.726,12.726,0,0,1,82.8,64.538a4,4,0,0,1-1.569-3.376,5.063,5.063,0,0,1,2.189-4.256,9.435,9.435,0,0,1,5.749-1.621,18.051,18.051,0,0,1,4.134.446,14.59,14.59,0,0,1,3.567,1.378l-.9,1.424a13.343,13.343,0,0,0-6.641-1.581A7.832,7.832,0,0,0,85,58.025a3.245,3.245,0,0,0-1.667,2.854,2.9,2.9,0,0,0,1.239,2.449,9.89,9.89,0,0,0,3.59,1.488l2.826.73a14.235,14.235,0,0,1,4.84,2.183,4.358,4.358,0,0,1,1.847,3.682,5.057,5.057,0,0,1-2.316,4.319,10.546,10.546,0,0,1-6.236,1.644,17.8,17.8,0,0,1-4.563-.544" transform="translate(389.082 264.769)" fill="#040505"></path><path id="Path_62" data-name="Path 62" d="M107.8,55.676V76.937h-1.974l-.046-5.026v-.359a8.94,8.94,0,0,1-3.74,4.25,12.252,12.252,0,0,1-6.421,1.546,12.51,12.51,0,0,1-5.952-1.378,9.974,9.974,0,0,1-4.053-3.862,11.363,11.363,0,0,1-1.442-5.738,11.57,11.57,0,0,1,1.442-5.79,9.8,9.8,0,0,1,4.053-3.908,12.376,12.376,0,0,1,5.952-1.378,12.252,12.252,0,0,1,6.421,1.546,8.97,8.97,0,0,1,3.74,4.238v-.359l.046-5.02Zm-6.659,18.771a8.352,8.352,0,0,0,3.428-3.266,9.565,9.565,0,0,0,1.21-4.858,9.762,9.762,0,0,0-1.21-4.875,8.272,8.272,0,0,0-3.428-3.277,10.663,10.663,0,0,0-5.078-1.158,10.8,10.8,0,0,0-5.13,1.158,8.188,8.188,0,0,0-3.422,3.277,9.782,9.782,0,0,0-1.216,4.916,9.507,9.507,0,0,0,1.216,4.84,8.331,8.331,0,0,0,3.422,3.248,11.025,11.025,0,0,0,5.13,1.158,10.887,10.887,0,0,0,5.078-1.158" transform="translate(403.162 264.819)" fill="#040505"></path><path id="Path_63" data-name="Path 63" d="M100.663,55.368l-.156,1.824a11.394,11.394,0,0,0-7.07,1.917,6.3,6.3,0,0,0-2.49,5.246V77.04H88.921V55.779H90.9l.046,4.128a9.731,9.731,0,0,1,9.716-4.539" transform="translate(425.935 264.716)" fill="#040505"></path><path id="Path_64" data-name="Path 64" d="M102.747,55.368l-.162,1.824a11.384,11.384,0,0,0-7.07,1.917,6.281,6.281,0,0,0-2.5,5.246V77.04H91V55.779h1.98l.041,4.128a9.74,9.74,0,0,1,9.721-4.539" transform="translate(435.889 264.716)" fill="#040505"></path><path id="Path_65" data-name="Path 65" d="M98.147,75.994a10.146,10.146,0,0,1-4.18-3.862,12.06,12.06,0,0,1,0-11.58,10,10,0,0,1,4.18-3.891,13.447,13.447,0,0,1,6.253-1.378,13.27,13.27,0,0,1,6.178,1.378,9.951,9.951,0,0,1,4.175,3.891,12.06,12.06,0,0,1,0,11.58,10.1,10.1,0,0,1-4.175,3.862,14.706,14.706,0,0,1-12.431,0m11.32-1.517a8.274,8.274,0,0,0,3.439-3.266,9.45,9.45,0,0,0,1.21-4.858,9.629,9.629,0,0,0-1.21-4.875,8.2,8.2,0,0,0-3.439-3.277,11.864,11.864,0,0,0-10.231,0,8.308,8.308,0,0,0-3.428,3.277,9.762,9.762,0,0,0-1.21,4.875,9.624,9.624,0,0,0,1.21,4.858,8.352,8.352,0,0,0,3.428,3.266,11.945,11.945,0,0,0,10.231,0" transform="translate(443.013 264.789)" fill="#040505"></path><rect id="Rectangle_2" data-name="Rectangle 2" width="2.032" height="31.596" transform="translate(561.634 310.161)" fill="#040505"></rect><rect id="Rectangle_3" data-name="Rectangle 3" width="2.032" height="31.596" transform="translate(567.789 310.161)" fill="#040505"></rect><path id="Path_66" data-name="Path 66" d="M104.478,75.994a10.081,10.081,0,0,1-4.169-3.862,12.029,12.029,0,0,1,0-11.58,9.9,9.9,0,0,1,4.169-3.891,13.47,13.47,0,0,1,6.259-1.378,13.27,13.27,0,0,1,6.178,1.378,10.02,10.02,0,0,1,4.175,3.891,12.06,12.06,0,0,1,0,11.58,10.169,10.169,0,0,1-4.175,3.862,13.342,13.342,0,0,1-6.178,1.378,13.615,13.615,0,0,1-6.259-1.378M115.8,74.477a8.288,8.288,0,0,0,3.445-3.266,9.57,9.57,0,0,0,1.216-4.858,9.692,9.692,0,0,0-1.216-4.875A8.212,8.212,0,0,0,115.8,58.2a11.812,11.812,0,0,0-10.225,0,8.272,8.272,0,0,0-3.428,3.277,10.39,10.39,0,0,0,0,9.733,8.352,8.352,0,0,0,3.428,3.266,11.932,11.932,0,0,0,10.225,0" transform="translate(473.374 264.789)" fill="#040505"></path></g></g></g></svg>